<svg width="4602" height="1089" viewBox="0 0 4602 1089" fill="none" xmlns="http://www.w3.org/2000/svg">
<mask id="mask0_2004_5207" style="mask-type:alpha" maskUnits="userSpaceOnUse" x="0" y="0" width="4602" height="1089">
<path d="M249.333 1.80007C222.666 4.86707 203.733 9.26709 180.666 18.2001C105.2 47.1331 46 107.133 17.6 183.133C9.20004 205.4 3.20003 231 1.86603 250.333C1.06603 260.733 0.800042 422.333 0.933042 656.33L1.33304 1045L6.13302 1055.13C12.533 1068.33 22 1077.8 35.2 1084.2L45.333 1089H446H846.67L864 1085.27C964.93 1063.4 1040.13 997.93 1075.73 901C1083.33 880.47 1084.27 876.33 1087.33 851.27C1089.87 831 1090 819.67 1090 440.2C1090 51.2671 1090 49.9331 1087.33 41.1331C1082.4 25.2671 1068.53 10.8671 1051.33 3.5331C1045.47 1.0001 1035.47 1.00008 652 0.867082C435.733 0.733082 254.533 1.13307 249.333 1.80007ZM893.07 189.8C900.8 193.8 900.67 191.933 900.67 254.067C900.67 290.467 900.13 312.067 899.33 313.667C896 319.933 907.73 319.667 618 320.333C353.866 321 343.866 321.133 339.333 323.533C332.8 327 327.6 332.067 324.266 338.333C321.333 343.533 321.333 344.867 320.933 413.933L320.533 484.2L317.066 487C315.2 488.47 312.666 489.67 311.466 489.67C308.8 489.67 264 464.067 250 454.6C244.533 450.867 234 441.8 226.666 434.333C215.6 423.4 212.133 418.867 207.066 408.867C195.466 386.467 190 359.133 190 324.6C190 288.467 199.733 260.467 221.2 234.867C240.533 211.8 272.4 193.8 301.333 189.8C314.133 187.933 889.6 188.067 893.07 189.8ZM728.8 361.533L732.67 365.4V543.13C732.67 706.6 732.53 721 730.4 723.27C726.13 727.93 721.2 726.2 691.33 710.2C537.066 626.73 497.6 605.67 495.466 605.67C494.133 605.67 492.4 606.47 491.6 607.4C490.666 608.47 489.866 629.4 489.2 667L488.266 725L484.533 728.6L480.933 732.33H423.333H365.733L361.866 728.47L358 724.6V547.53V370.467L360.933 367.4C362.533 365.667 365.2 364.333 366.933 364.333C368.666 364.333 419.466 393.667 481.333 430.333C542.4 466.6 593.33 496.33 594.4 496.33C595.47 496.33 597.2 495.27 598.4 493.93C600.4 491.8 600.67 484.47 600.93 428.467L601.33 365.4L605.73 361.533L610 357.667H667.47H724.93L728.8 361.533ZM803.87 620.47C843.2 642.73 860.8 655.4 873.33 670.6C892.93 694.47 901.6 726.47 900.27 771C899.6 797.27 897.2 807.67 887.33 827.67C869.87 863.13 838.8 888.07 799.73 898.07L788 901H492.933H197.733L193.866 896.6L190 892.33V835V777.8L193.2 774.07L196.4 770.33L471.6 769.67C736.67 769 746.8 768.87 751.33 766.47C757.87 763 763.07 757.93 766.4 751.67C769.33 746.47 769.33 745 769.73 680.07L770.13 613.8L773.6 611C775.47 609.53 778.27 608.33 779.6 608.33C781.07 608.33 792 613.8 803.87 620.47Z" fill="black"/>
<path d="M444.667 799.4C434.267 804.87 429.867 818.07 435.067 828.2C438.133 834.47 442.133 837.13 456 842.07C469.333 846.87 472.533 849.93 469.2 854.73C467.6 857 465.867 857.67 461.2 857.67C454.133 857.67 450.4 856.07 446.533 851.4L443.6 848.07L436.8 851.8C433.067 853.93 430 856.33 430 857.27C430 859.93 438.133 868.33 443.2 871C458.267 878.6 478.933 873.93 485.333 861.53C488.133 856.2 487.867 845.93 484.667 840.73C481.333 835.27 477.867 833 466 829C453.333 824.73 450 822.47 450 818.33C450 811.13 463.333 810.47 468.667 817.4L471.467 820.87L477.733 817.4C481.2 815.4 484.133 813 484.4 811.8C485.067 808.73 475.2 799.8 469.2 797.93C460.533 795.4 451.2 795.93 444.667 799.4Z" fill="black"/>
<path d="M496.667 835.67V873.8L505.067 873.4L513.333 873L514 851.67L514.667 830.47L523.733 845.4C528.8 853.53 533.333 860.6 533.867 861C534.533 861.27 539.467 854.33 544.8 845.27L554.667 829L555.067 851.4L555.333 873.8L563.733 873.4L572 873L572.4 835.27L572.667 797.67H563.733H554.667L544.667 814.2C539.2 823.4 534.4 830.6 534 830.33C533.467 830.07 528.8 822.6 523.467 813.67L513.733 797.67H505.2H496.667V835.67Z" fill="black"/>
<path d="M586 835.67V873.67H594H602V851.53C602 839.4 602.53 829.8 603.07 830.2C603.73 830.6 608.4 837.8 613.47 846.2C618.53 854.73 622.93 861.67 623.33 861.67C623.73 861.67 628.53 854.33 634 845.27L644 829L644.4 851.27L644.67 873.67H652.67H660.67V835.67V797.67H652.4H644L634 814.2C628.53 823.27 623.6 830.47 623.2 830.2C622.67 829.93 618 822.47 612.67 813.67L602.93 797.67H594.53H586V835.67Z" fill="black"/>
<path d="M1575.6 164.333C1545.2 168.6 1516.27 183.667 1498.27 204.733C1466.4 241.8 1466.27 300.067 1498.13 334.2C1518 355.4 1535.87 364.6 1588.67 380.333C1628 392.067 1643.6 400.067 1649.47 411.267C1652.27 416.6 1651.87 430.733 1648.8 436.333C1645.6 442.467 1637.6 447.8 1627.87 450.333C1617.2 453.133 1589.47 453.267 1578.67 450.333C1559.07 445.267 1543.47 433 1533.73 415.4C1530.8 410.067 1528.13 405.667 1527.6 405.667C1527.07 405.667 1462.53 442.6 1460.8 443.933C1459.73 444.733 1467.73 460.6 1473.2 469C1480.13 479.53 1492.53 492.87 1502.53 500.47C1532.4 523 1575.73 534.07 1617.6 529.8C1654.67 526.07 1684 513.27 1704.13 492.2C1714.53 481.13 1720.8 470.467 1726.13 454.867C1730.27 443.133 1730.53 441.133 1730.53 423.667C1730.67 409.8 1730 402.733 1728.27 396.333C1718.4 359.8 1691.87 337.667 1636.67 319.8C1597.2 306.867 1589.07 304.067 1578.67 299C1559.73 289.8 1554 282.867 1554 268.867C1554 248.733 1572.8 238.467 1603.47 241.8C1622.93 244.067 1635.87 252.067 1647.47 269.4C1651.2 275 1654.67 279.667 1655.2 279.667C1655.73 279.667 1670.67 271.267 1688.27 261L1720.4 242.333L1716.4 235C1700 205.533 1673.87 183.133 1642.67 171.933C1624.4 165.4 1593.33 161.933 1575.6 164.333Z" fill="black"/>
<path d="M1921.33 164.333C1877.73 169.133 1839.07 187.533 1809.2 217.667C1737.6 289.8 1737.6 404.2 1809.2 476.33C1826.13 493.53 1851.47 510.47 1869.73 516.87C1872.8 518.07 1877.33 519.8 1879.73 520.87C1894.93 527.93 1933.87 532.47 1956.27 529.93C1971.07 528.33 1969.87 528.47 1988.67 523.67C2004.67 519.53 2015.47 515.53 2016.93 513.27C2017.47 512.33 2018 512.07 2018 512.6C2018 514.47 2043.87 497.93 2054.8 489.13C2087.2 463.133 2109.87 425.533 2118.93 383C2120.8 374.333 2121.33 365.8 2121.33 347C2121.33 328.2 2120.8 319.667 2118.93 311C2104.8 244.6 2058.4 192.733 1995.07 172.467C1972 165.133 1943.33 161.933 1921.33 164.333ZM1966.93 244.467C1979.2 247.267 1993.47 253.933 2004.27 261.933C2013.47 268.733 2026.53 285.133 2032.13 297C2040 313.4 2042.4 325.133 2042.4 347C2042.4 368.867 2040 380.6 2032.13 397C2026.4 409.133 2013.47 425.4 2003.87 432.467C1995.2 438.867 1977.6 447.267 1968 449.667C1949.73 454.067 1922.93 453.533 1905.33 448.2C1873.33 438.733 1848.8 413.133 1839.07 379.4C1836.4 370.467 1836 365.933 1836 347C1836 328.067 1836.4 323.533 1839.07 314.6C1854.93 259.533 1907.33 230.867 1966.93 244.467Z" fill="black"/>
<path d="M2319.33 164.467C2231.33 173.267 2166.93 236.2 2155.47 324.2C2149.47 370.733 2163.2 423 2191.2 459.667C2199.2 470.2 2222.4 493.4 2230.13 498.73C2250.13 512.33 2278.13 523.53 2302.4 527.8C2321.07 531.13 2353.6 530.87 2371.33 527.27C2406.8 520.07 2435.33 505.8 2460 482.73C2471.47 471.933 2487.87 451.667 2486.67 449.667C2486 448.733 2421.47 411 2420.4 411C2420.13 411 2417.33 414.6 2414 419.133C2403.6 433.4 2386.4 444.2 2365.33 449.667C2351.6 453.267 2326.27 453.533 2310.67 450.333C2277.33 443.4 2252.27 422.2 2241.07 391.267C2236.13 377.8 2234 364.467 2234 347C2234 307 2248.27 276.333 2275.07 258.6C2293.6 246.2 2311.47 241.4 2338 241.533C2373.87 241.533 2399.87 254.2 2418.53 280.867C2420.13 283.267 2422 282.333 2453.2 264.333C2471.2 253.933 2486.27 244.867 2486.67 244.333C2487.87 242.467 2471.33 221.8 2460.27 211.667C2429.07 182.6 2388.93 166.067 2344.67 163.933C2336.93 163.533 2325.6 163.8 2319.33 164.467Z" fill="black"/>
<path d="M3606.67 164.867C3568.13 171.133 3533.73 194.733 3518.8 224.733C3510.93 240.733 3509.33 248.867 3509.33 272.333C3509.33 291.533 3509.6 293.8 3513.2 304.867C3520.4 326.867 3532.53 341.267 3556.67 356.467C3572.67 366.6 3586.67 372.2 3620.8 382.333C3651.07 391.267 3670.93 399 3678.53 404.867C3692.67 415.533 3692 440.2 3677.33 449.533C3668.13 455.4 3659.73 457 3639.33 457C3624.27 457 3619.73 456.467 3611.33 453.933C3590.53 447.4 3576 434.867 3565.73 414.6L3562.67 408.733L3531.07 427C3513.6 437 3498.13 446.2 3496.53 447.267L3493.6 449.133L3499.73 461.133C3519.73 499.67 3555.33 524.73 3602 533.13C3619.6 536.33 3653.07 536.2 3670 533C3691.33 529 3708.8 522.2 3724 511.93C3753.73 491.8 3768.67 463.133 3768.67 426.6C3768.67 409.8 3766.27 398.2 3760.13 385C3745.07 352.467 3724.27 338.6 3658.27 317.133C3621.73 305.267 3607.33 299.267 3599.07 292.467C3585.2 280.733 3585.33 258.733 3599.47 249C3613.33 239.267 3642.67 239.133 3661.73 248.733C3668.93 252.2 3682.8 266.733 3687.33 275.4C3689.2 279 3691.33 281.4 3692.27 281C3694.53 280.2 3755.73 244.333 3757.07 243.133C3758.53 241.667 3744.53 219.933 3735.73 209.933C3716.93 188.6 3690.93 173.4 3662.27 166.867C3647.07 163.533 3620.67 162.6 3606.67 164.867Z" fill="black"/>
<path d="M2528.27 170.6C2527.73 171 2527.33 250.6 2527.33 347.267V523H2567.33H2607.33V428.333C2607.33 347.667 2607.6 333.667 2609.2 333.667C2611.07 333.667 2718 482.6 2718 485.13C2718 485.67 2724.13 494.6 2731.6 505.13L2745.2 524.33H2775.87H2806.4L2805.6 474.6C2805.07 447.4 2804.67 367.533 2804.67 297.267V169.667H2765.33H2726V265.8C2726 348.867 2725.73 361.8 2724.13 361.4C2723.07 361.133 2692.93 319.933 2657.33 269.667C2621.6 219.4 2590.93 176.333 2589.2 173.933L2585.87 169.667H2557.47C2541.87 169.667 2528.67 170.067 2528.27 170.6Z" fill="black"/>
<path d="M2868.27 170.6C2867.73 171 2867.33 250.867 2867.33 347.933V524.33H2978.67H3090V485.67V447L3019.07 446.733L2948 446.333L2947.6 414.6L2947.33 383H3010.67H3074V345V307H3010.67H2947.33V277V247L3017.07 246.733L3086.67 246.333V208.333V170.333L2977.87 169.933C2918.13 169.8 2868.67 170.067 2868.27 170.6Z" fill="black"/>
<path d="M3110.67 171.4C3110.27 172.333 3110.13 189.533 3110.27 209.667L3110.67 246.333L3156.53 246.733L3202.4 247L3201.47 385.667L3200.53 524.33H3241.2H3282V385.667V247H3327.33H3372.67L3372.4 208.6L3372 170.333L3241.6 169.933C3137.2 169.667 3111.07 169.933 3110.67 171.4Z" fill="black"/>
<path d="M3816.27 170.6C3815.73 171 3815.33 252.067 3815.33 350.6V529.67H3855.33H3895.33V425C3895.33 342.067 3895.73 320.333 3897.07 320.333C3897.87 320.467 3909.47 338.467 3922.67 360.333C3993.2 477.93 3989.2 471.667 3994.13 472.067L3998.67 472.333L4044.53 397C4069.73 355.533 4090.8 321.267 4091.47 320.867C4092.13 320.467 4092.67 365.533 4092.67 424.867V529.67H4133.33H4174L4173.73 349.933L4173.33 170.333H4133.33H4093.33L4044.67 250.067C4014.13 300.067 3995.33 329.533 3994.13 329.4C3993.2 329.133 3970.4 293.133 3943.73 249.267L3895.07 169.667H3856.13C3834.67 169.667 3816.67 170.067 3816.27 170.6Z" fill="black"/>
<path d="M4244.27 170.6C4243.73 171 4243.33 252.067 4243.33 350.6V529.67H4283.33H4323.33V424.867C4323.33 357.533 4323.73 320.333 4324.67 320.6C4325.33 320.733 4346.53 354.867 4371.87 396.333C4416.93 470.467 4417.73 471.667 4422.13 472.067L4426.67 472.467L4472.53 397C4497.73 355.533 4518.93 321.267 4519.6 320.867C4520.13 320.467 4520.67 367.267 4520.67 424.867V529.67H4561.33H4602V349.667V169.667L4561.2 169.933L4520.4 170.333L4472 249.667C4445.33 293.267 4423.07 329.133 4422.4 329.267C4421.87 329.4 4410.53 311.8 4397.33 289.933C4384.13 268.2 4370.67 246.467 4367.6 241.667C4364.4 236.867 4353.07 218.733 4342.4 201.267L4323.07 169.667H4284.13C4262.67 169.667 4244.67 170.067 4244.27 170.6Z" fill="black"/>
<path d="M1592.67 652.47C1582.4 656.6 1578.13 665.4 1576.53 686.2C1574.27 716.87 1570.67 726.6 1556.13 741.13C1541.2 755.93 1539.07 756.6 1504.8 757.53C1477.6 758.33 1475.73 758.47 1471.73 761.4C1466.27 765.27 1462.4 771.53 1460.53 779.8C1459.33 785.27 1460 795.67 1464.67 844.33C1467.73 876.2 1470.8 904.47 1471.47 907C1473.47 915 1477.73 920.33 1484.13 923.13C1489.33 925.53 1492.4 925.8 1507.07 925.4C1523.73 925 1524.13 925 1529.87 920.6C1533.07 918.33 1536.53 916.33 1537.33 916.33C1538.27 916.33 1543.47 918.33 1548.8 920.6L1558.67 925L1612.67 925.4C1649.33 925.67 1669.2 925.4 1674.67 924.33C1684.67 922.33 1692.93 917.67 1696.67 911.8C1700.53 905.4 1701.6 895.27 1698.8 889.93C1697.6 887.67 1696.67 885.53 1696.67 885.27C1696.67 885 1699.33 883.67 1702.67 882.47C1714.93 877.67 1720.4 866.47 1716.13 854.6C1713.87 848.33 1713.87 848.07 1716.27 846.2C1717.6 845.27 1719.07 844.33 1719.6 844.33C1721.33 844.33 1727.33 834.33 1728.8 829.27C1730.4 823.13 1728.4 814.87 1723.87 808.73L1720.67 804.6L1724.67 797C1734.13 779 1726 758.2 1706.13 749.27C1700.53 746.73 1696.67 746.47 1666 745.93C1647.33 745.67 1631.73 745.27 1631.6 745C1631.33 744.73 1632.4 739.53 1633.87 733.53C1637.2 720.2 1637.6 699.67 1634.67 687.27C1632.53 678.33 1627.6 667.53 1622.4 660.73C1616.13 652.6 1602.13 648.73 1592.67 652.47ZM1613.2 675.53C1619.07 681.53 1620.93 689.13 1620.8 705C1620.8 719.8 1618.13 732.33 1611.47 749C1606.67 760.87 1606.67 761.27 1609.6 764.6C1611.6 766.87 1614.8 767 1656 767C1691.87 767 1700.67 767.4 1702.67 768.87C1704.8 770.33 1705.33 772.47 1705.33 779.27C1705.33 790.6 1704 794.47 1698.4 799.53C1692.93 804.73 1693.2 807.8 1699.33 811.27C1710.27 817.4 1706.13 834.73 1692.53 840.47C1687.33 842.47 1686.4 846.87 1689.87 852.47C1695.73 862.07 1692 872.2 1681.6 875.27C1672.4 877.8 1670.4 881 1674.67 885.67C1677.2 888.47 1678.67 896.33 1677.47 900.87C1676.93 903.27 1675.33 904.47 1672.27 905.27C1670 905.8 1644.93 906.07 1616.67 905.67L1565.33 905L1554.4 899.8L1543.33 894.6V834.2V773.8L1551.07 769.53C1561.73 763.53 1581.6 743.13 1586.67 733C1590.53 725.13 1590.67 724.6 1591.07 701C1591.6 672.07 1592.13 671 1602.27 671C1608.27 671 1609.47 671.53 1613.2 675.53ZM1524.4 841.27L1524 906.2L1513.6 906.6C1500.8 907.13 1495.33 905.13 1492.27 898.87C1489.47 892.87 1478.53 797.4 1479.87 790.2C1480.53 787.13 1482.67 783.4 1485.33 780.73L1489.73 776.33H1507.2H1524.67L1524.4 841.27Z" fill="black"/>
<path d="M2463.73 652.33C2441.2 653.53 2438.93 655.8 2449.33 666.87C2452.67 670.33 2455.33 673.8 2455.33 674.47C2455.33 676.2 2380.27 751 2378.67 751C2377.87 751 2369.2 743 2359.47 733.13C2349.6 723.27 2340.13 714.87 2338.4 714.33C2336.27 713.8 2333.6 714.47 2330.93 716.2C2324.13 720.33 2280.67 764.87 2280.53 767.8C2280.13 773.53 2280.93 775.8 2284.8 779.27C2287.33 781.67 2290.13 783 2292.93 783C2296.53 783 2299.47 780.73 2314 765.93C2323.2 756.6 2332.13 747.8 2333.73 746.47L2336.8 743.8L2355.87 762.73C2371.47 778.33 2375.6 781.67 2378.67 781.67C2382 781.67 2389.2 775 2427.33 737C2451.87 712.47 2472.53 692.33 2473.2 692.33C2473.87 692.33 2477.33 695 2480.8 698.33C2488 705.13 2488.93 705.4 2492.53 701.8C2494.53 699.8 2495.07 696.2 2495.87 678.2C2496.4 666.6 2496.4 656.07 2496 654.73C2495.47 653.53 2493.87 652.2 2492.27 651.8C2489.07 651 2487.87 651 2463.73 652.33Z" fill="black"/>
<path d="M2110.93 655.93C2109.87 657.27 2108.53 662.2 2108 667.13L2107.07 676.07L2098.4 676.6C2088.8 677.13 2084.67 680.2 2084.67 686.33C2084.67 692.47 2088.93 695.53 2098.27 696.07L2106.93 696.6L2107.73 705.4C2108.53 715.27 2111.33 719 2117.87 719C2124.53 719 2127.33 714.6 2127.33 703.8V696.33H2134.8C2146.27 696.33 2150 693.67 2150 685.53C2150 679 2147.6 677.4 2136.93 676.47L2128 675.67L2127.2 666.73C2126.8 661.8 2125.73 656.87 2124.8 655.8C2122.4 652.87 2113.6 653 2110.93 655.93Z" fill="black"/>
<path d="M1986.4 678.2C1974.4 681.27 1964.53 687 1955.33 696.2C1930 721.8 1928.67 760.33 1952.13 787.93C1955.47 791.8 1957.87 795.53 1957.33 796.2C1956.93 796.87 1953.2 798.73 1948.93 800.33C1932.27 806.6 1914 820.6 1902.13 836.33C1888.27 854.73 1881.07 873.27 1878 897.93C1875.73 916.87 1879.33 925.67 1889.33 925.67C1896.4 925.67 1897.6 923 1898.4 905C1899.33 886.87 1901.2 878.87 1907.73 865.27C1918.8 842.07 1938.4 824.73 1963.07 816.2C1973.33 812.6 1996.27 810.47 2012.67 811.53C2039.2 813.27 2054.53 818.6 2070.93 831.67C2094.27 850.33 2105.6 872.73 2106.93 903.4C2107.6 916.47 2108.13 919.67 2110.4 922.6C2112.67 925.53 2113.87 925.8 2118.53 925.27C2127.07 924.07 2127.73 922.33 2126.93 902.33C2125.87 875.4 2119.87 858.47 2103.33 836.6C2090.4 819.4 2078.4 810.07 2058 801.13C2053.2 799 2048.8 796.87 2048.13 796.2C2047.47 795.67 2049.73 792.07 2053.2 788.07C2084.53 752.33 2069.87 695.93 2025.2 680.2C2015.2 676.73 1996 675.67 1986.4 678.2ZM2024.27 700.73C2034.27 705.93 2039.6 711.13 2044.8 720.6C2048.8 728.07 2049.33 730.33 2049.73 741.67C2050.13 752.33 2049.73 755.53 2047.33 762.07C2043.87 771.4 2033.6 782.33 2024 787C2018.13 789.93 2015.47 790.33 2002.67 790.33C1989.2 790.33 1987.47 790.07 1980.93 786.6C1971.73 781.8 1963.73 773.53 1959.47 764.33C1956.4 757.93 1956 755.27 1956 743C1956 730.87 1956.4 728.2 1959.2 723C1965.47 711.13 1974.67 702.87 1986.53 698.73C1996.93 695 2015.07 695.93 2024.27 700.73Z" fill="black"/>
<path d="M2442.67 750.87C2431.07 753.93 2421.6 761.13 2416 771.13C2412.53 777.53 2412 779.8 2411.6 792.6C2411.33 800.6 2410.53 807 2410 807C2409.47 807 2406.13 805.8 2402.67 804.2C2393.6 800.2 2379.87 801 2370 806.07C2366.13 808.07 2362.93 809.53 2362.8 809.4C2362.67 809.13 2361.73 807.27 2360.67 805.13C2357.73 799.4 2349.2 791.53 2342.27 788.07C2332.8 783.4 2318.67 783.67 2308.4 788.73C2299.2 793.27 2290.93 802.2 2288.13 810.6C2285.07 819.67 2285.07 890.33 2288.13 899.4C2290.8 907.4 2299.33 916.87 2307.87 921.4L2314.67 925L2386.13 925.4C2455.33 925.8 2457.87 925.67 2464.93 923C2474.8 919.4 2482.4 912.47 2486.93 903.27L2490.67 895.67L2491.07 840.6C2491.47 776.33 2491.47 775.67 2480.67 763.93C2476.67 759.53 2471.6 755.67 2467.47 753.93C2460.13 750.73 2448.67 749.27 2442.67 750.87ZM2464.27 771.13C2467.07 772.87 2470 776.33 2471.47 779.53C2473.73 784.6 2474 789.27 2474 838.07C2474 897.4 2474 897.13 2464.93 904.07C2460.53 907.4 2459.2 907.67 2444.4 908.07L2428.67 908.6V845.27V782.07L2431.73 777.53C2436.13 770.87 2445.07 766.6 2453.07 767.53C2456.67 767.93 2461.6 769.53 2464.27 771.13ZM2336.67 804.6C2341.07 806.87 2343.47 809.27 2345.73 813.67C2348.53 819.4 2348.67 820.6 2348.67 864.07V908.6L2332.8 908.07C2315.2 907.67 2312.27 906.47 2306.4 897.67C2303.33 893.4 2303.33 892.47 2303.33 855.4C2303.33 815 2303.47 813.67 2310.27 807.4C2317.07 801 2327.33 799.93 2336.67 804.6ZM2400.67 821.93C2403.07 823.67 2406.4 826.73 2407.87 828.73C2410.53 832.33 2410.67 834.33 2411.07 870.47L2411.47 908.33H2388.67H2365.87L2366.27 869.93C2366.67 832.87 2366.8 831.53 2369.6 827.53C2373.73 821.8 2379.87 819 2388.8 819C2394.4 819 2397.33 819.8 2400.67 821.93Z" fill="black"/>
</mask>
<g mask="url(#mask0_2004_5207)">
<path d="M4699 -56H-309V1332H4699V-56Z" fill="url(#paint0_linear_2004_5207)"/>
</g>
<defs>
<linearGradient id="paint0_linear_2004_5207" x1="1479" y1="-84" x2="1791" y2="885" gradientUnits="userSpaceOnUse">
<stop stop-color="#9C57E8"/>
<stop offset="1" stop-color="#D03AC2"/>
</linearGradient>
</defs>
</svg>
