<svg xmlns="http://www.w3.org/2000/svg" viewBox="0 0 900 600">
  <rect width="900" height="600" fill="#DE2910"/>
  <!-- Big star -->
  <polygon points="180,120 195,165 240,165 205,190 220,235 180,210 140,235 155,190 120,165 165,165" fill="#FFDE00"/>
  <!-- Small stars -->
  <polygon points="300,90 306,105 321,105 310,115 316,130 300,122 284,130 290,115 279,105 294,105" fill="#FFDE00"/>
  <polygon points="330,150 336,165 351,165 340,175 346,190 330,182 314,190 320,175 309,165 324,165" fill="#FFDE00"/>
  <polygon points="330,210 336,225 351,225 340,235 346,250 330,242 314,250 320,235 309,225 324,225" fill="#FFDE00"/>
  <polygon points="300,270 306,285 321,285 310,295 316,310 300,302 284,310 290,295 279,285 294,285" fill="#FFDE00"/>
</svg> 